<svg xmlns="http://www.w3.org/2000/svg" width="26.787" height="26.788" viewBox="0 0 26.787 26.788">
  <g id="Gruppe_19" data-name="Gruppe 19" transform="translate(-62.937 -247.366)">
    <g id="Gruppe_19-2" data-name="Gruppe 19" transform="translate(62.937 247.366)">
      <path id="Pfad_14" data-name="Pfad 14" d="M76.331,274.154A13.394,13.394,0,1,1,89.724,260.76,13.409,13.409,0,0,1,76.331,274.154Zm0-25.715A12.321,12.321,0,1,0,88.652,260.76,12.335,12.335,0,0,0,76.331,248.439Z" transform="translate(-62.937 -247.366)" fill="#1d1d1b"/>
    </g>
    <g id="Gruppe_20" data-name="Gruppe 20" transform="translate(71.047 255.902)">
      <path id="Pfad_15" data-name="Pfad 15" d="M93.451,270.606h-6.3a2.135,2.135,0,0,0-2.133,2.133v5.99a2.135,2.135,0,0,0,2.133,2.133h6.3a2.135,2.135,0,0,0,2.133-2.133v-5.99A2.135,2.135,0,0,0,93.451,270.606Z" transform="translate(-85.016 -270.606)" fill="#1d1d1b"/>
      <path id="Pfad_16" data-name="Pfad 16" d="M94.462,276.76a2.867,2.867,0,1,0,2.867,2.868A2.87,2.87,0,0,0,94.462,276.76Zm0,4.8a1.935,1.935,0,1,1,1.935-1.935A1.937,1.937,0,0,1,94.462,281.562Z" transform="translate(-89.178 -274.5)" fill="#fff"/>
      <path id="Pfad_17" data-name="Pfad 17" d="M106.33,275.167a.486.486,0,1,0,.486.486A.486.486,0,0,0,106.33,275.167Z" transform="translate(-98.194 -273.492)" fill="#fff"/>
    </g>
  </g>
</svg>
