<svg id="Gruppe_17" data-name="Gruppe 17" xmlns="http://www.w3.org/2000/svg" width="26.617" height="26.617" viewBox="0 0 26.617 26.617">
  <path id="Pfad_12" data-name="Pfad 12" d="M273.085,55.579a13.308,13.308,0,1,0,13.308,13.308A13.323,13.323,0,0,0,273.085,55.579Zm0,25.551a12.243,12.243,0,1,1,12.243-12.243A12.257,12.257,0,0,1,273.085,81.13Z" transform="translate(-259.776 -55.579)" fill="#1d1d1b"/>
  <path id="Pfad_13" data-name="Pfad 13" d="M291.127,80.807H283.09a1.656,1.656,0,0,0-1.655,1.656v4.89a1.656,1.656,0,0,0,1.655,1.655h8.037a1.656,1.656,0,0,0,1.656-1.655v-4.89A1.656,1.656,0,0,0,291.127,80.807Zm-.865,4.121a.565.565,0,0,1-.105.314,2.018,2.018,0,0,1-.4.285l-3.585,1.926a.626.626,0,0,1-.25.054.6.6,0,0,1-.52-.3.573.573,0,0,1-.073-.279l0-.219,0-2.117,0-1.488,0-.217a.569.569,0,0,1,.073-.279.607.607,0,0,1,.753-.255l3.553,1.911a1.97,1.97,0,0,1,.454.308.563.563,0,0,1,.105.329Z" transform="translate(-273.53 -71.6)" fill="#1d1d1b"/>
</svg>
