<svg id="Gruppe_13" data-name="Gruppe 13" xmlns="http://www.w3.org/2000/svg" width="26.616" height="26.617" viewBox="0 0 26.616 26.617">
  <path id="Pfad_6" data-name="Pfad 6" d="M76.245,82.2A13.308,13.308,0,1,1,89.553,68.887,13.323,13.323,0,0,1,76.245,82.2Zm0-25.551A12.243,12.243,0,1,0,88.488,68.887,12.256,12.256,0,0,0,76.245,56.645Z" transform="translate(-62.937 -55.579)" fill="#1d1d1b"/>
  <path id="Pfad_7" data-name="Pfad 7" d="M94.7,77.954c.047-.046.206-.154.668-.154a4.965,4.965,0,0,1,.831.076l.457.079.395-2.209L96.6,75.66a4.819,4.819,0,0,0-3.356.276,2.391,2.391,0,0,0-.972,1.166,4.334,4.334,0,0,0-.193,1.479v.467H90.715v2.091H92.08v6.438h2.47V81.139h1.778V79.048H94.551v-.343C94.551,78.135,94.679,77.979,94.7,77.954Z" transform="translate(-80.577 -68.233)" fill="#1d1d1b"/>
</svg>
